# xmcd CD database file
#
# Track frame offsets:
#	150
#	13834
#	32464
#	49429
#	62891
#	77808
#	96104
#	114079
#	128627
#	148246
#	164431
#
# Disc length: 2432 seconds
#
# Revision: 0
# Processed by: cddbd v1.5.2PL0 Copyright (c) Steve Scherf et al.
# Submitted via: CDex 1.70beta2
#
DISCID=92097e0b
DTITLE=Shanklin Road - Cdn. - NB - Don't Forget About The Rain
DYEAR=1900
DGENRE=Country
TTITLE0=My Own Man
TTITLE1=Run Girl Run
TTITLE2=Don't Forget About The Rain
TTITLE3=Country Song
TTITLE4=Cheaters Hill
TTITLE5=Life Through A Bottle
TTITLE6=Who Can
TTITLE7=Our Love Will Survive
TTITLE8=Where Is God
TTITLE9=Counting Raindrops
TTITLE10=The Place That I Call Home
EXTD=
EXTT0=
EXTT1=
EXTT2=
EXTT3=
EXTT4=
EXTT5=
EXTT6=
EXTT7=
EXTT8=
EXTT9=
EXTT10=
PLAYORDER=
